<?xml version="1.0" standalone="no"?>
<!DOCTYPE svg PUBLIC "-//W3C//DTD SVG 20010904//EN"
 "http://www.w3.org/TR/2001/REC-SVG-20010904/DTD/svg10.dtd">
<svg version="1.0" xmlns="http://www.w3.org/2000/svg"
 width="848.000000pt" height="507.000000pt" viewBox="0 0 848.000000 507.000000"
 preserveAspectRatio="xMidYMid meet">
<metadata>
Created by potrace 1.15, written by Peter Selinger 2001-2017
</metadata>
<g transform="translate(0.000000,507.000000) scale(0.100000,-0.100000)"
fill="#000000" stroke="none">
<path d="M3895 4159 c-193 -204 -363 -386 -380 -403 -16 -18 -196 -210 -400
-427 -203 -217 -428 -457 -499 -534 -71 -77 -150 -162 -175 -189 -25 -27 -81
-88 -123 -134 l-78 -85 0 -145 0 -145 130 7 130 7 0 -735 0 -736 1750 0 1750
0 0 735 0 736 140 -7 140 -7 0 137 0 137 -107 117 c-150 163 -447 482 -607
652 -170 180 -222 236 -451 480 -126 135 -270 288 -320 340 -132 139 -403 425
-475 503 -35 37 -66 67 -69 67 -4 0 -164 -167 -356 -371z"/>
<path d="M1580 2673 c-245 -241 -602 -594 -795 -785 l-350 -347 168 -1 167 0
0 -450 0 -450 810 0 810 0 0 675 0 675 -130 0 -130 0 0 203 0 202 145 160 c80
88 145 165 145 170 1 11 -377 385 -389 385 -4 0 -207 -197 -451 -437z"/>
<path d="M6286 2925 l-189 -183 39 -45 c21 -25 83 -92 137 -150 l97 -104 0
-217 0 -216 -130 0 -130 0 0 -685 0 -685 815 0 815 0 0 450 0 450 168 2 167 3
-390 385 c-215 212 -571 564 -792 783 -221 218 -406 397 -410 397 -4 -1 -93
-84 -197 -185z"/>
<path d="M2933 603 l-2163 -3 0 -32 0 -31 1322 6 c727 4 2290 7 3475 7 l2153
0 0 30 0 30 -1312 -2 c-722 -2 -2286 -4 -3475 -5z"/>
</g>
</svg>
