<?xml version="1.0" standalone="no"?>
<!DOCTYPE svg PUBLIC "-//W3C//DTD SVG 20010904//EN"
 "http://www.w3.org/TR/2001/REC-SVG-20010904/DTD/svg10.dtd">
<svg version="1.0" xmlns="http://www.w3.org/2000/svg"
 width="676.000000pt" height="662.000000pt" viewBox="0 0 676.000000 662.000000"
 preserveAspectRatio="xMidYMid meet">
<metadata>
Created by potrace 1.15, written by Peter Selinger 2001-2017
</metadata>
<g transform="translate(0.000000,662.000000) scale(0.100000,-0.100000)"
fill="#000000" stroke="none">
<path d="M0 3310 l0 -3310 3380 0 3380 0 0 3310 0 3310 -3380 0 -3380 0 0
-3310z m3751 2860 c1 -5 1 -21 1 -35 0 -14 0 -83 -1 -155 l-1 -130 -70 0 -70
0 0 95 0 96 -62 -3 -63 -3 -3 -502 -2 -503 45 0 45 0 0 -70 0 -70 -164 0 -164
0 -4 54 c-5 82 -3 86 48 86 l44 0 0 505 0 505 -60 0 -60 0 0 -95 0 -95 -75 0
-75 0 0 165 0 165 345 0 c223 0 345 -4 346 -10z m771 -221 c73 -28 137 -55
142 -59 4 -5 -2 -36 -15 -69 -21 -52 -27 -60 -44 -54 -53 17 -57 13 -101 -102
-91 -235 -314 -818 -314 -821 0 -1 16 -8 36 -14 19 -7 34 -17 31 -24 -2 -6
-12 -35 -22 -63 -11 -29 -24 -53 -29 -53 -21 0 -279 105 -283 116 -2 6 6 37
18 68 16 45 24 56 37 51 10 -4 31 -9 47 -12 l30 -5 54 144 c29 79 69 181 87
228 55 143 214 561 214 564 0 2 -18 8 -40 15 -22 6 -40 16 -40 21 0 20 42 120
51 120 5 0 68 -23 141 -51z m-2287 -41 c14 -29 25 -59 25 -66 0 -7 -16 -20
-35 -28 l-35 -14 15 -38 c162 -395 373 -882 381 -882 20 0 128 48 132 58 2 6
-11 43 -27 82 -17 40 -31 76 -31 81 0 10 104 59 124 59 14 0 130 -285 122
-299 -3 -5 -52 -28 -108 -52 -57 -23 -163 -69 -237 -101 -74 -32 -135 -58
-137 -58 -5 0 -42 73 -54 105 -9 23 -6 27 31 41 22 9 38 22 36 28 -3 6 -60
142 -127 301 -67 160 -151 360 -187 445 -36 85 -68 159 -73 163 -4 5 -22 1
-40 -8 -18 -9 -36 -13 -40 -8 -13 12 -51 115 -46 120 6 7 269 121 279 122 4 1
19 -23 32 -51z m3296 -605 c63 -61 79 -83 79 -106 0 -25 2 -28 15 -17 12 10
22 6 53 -19 73 -58 76 -48 -44 -180 -60 -66 -113 -120 -119 -120 -11 -1 -95
80 -95 92 0 5 25 37 55 72 30 34 55 66 55 71 0 5 -33 42 -73 82 l-74 73 -346
-368 -346 -368 74 -75 75 -75 63 69 64 70 51 -44 c29 -24 52 -49 52 -56 0 -8
-26 -41 -57 -74 l-58 -60 -89 -13 -88 -14 -47 40 c-25 22 -76 68 -113 103
l-66 64 8 86 c6 70 12 90 32 112 14 15 163 176 333 357 169 182 311 333 314
337 6 7 153 35 195 37 11 1 52 -32 97 -76z m-4191 -44 c63 -56 116 -105 118
-110 4 -9 -77 -109 -87 -109 -3 1 -35 28 -71 60 l-64 60 -58 -57 c-32 -32 -58
-60 -58 -64 0 -5 207 -194 294 -268 17 -15 22 -12 72 42 l55 59 55 -48 56 -47
-57 -57 -57 -57 162 -144 c89 -79 166 -144 171 -144 6 0 35 29 65 65 l54 65
-65 60 c-36 33 -65 65 -65 70 0 6 20 30 44 54 l45 44 115 -108 c64 -59 116
-110 116 -112 0 -7 -31 -45 -102 -125 -36 -40 -104 -118 -153 -173 -48 -55
-93 -106 -99 -113 -10 -10 -22 -5 -59 29 -26 22 -47 46 -47 52 0 6 12 23 26
38 l26 27 -319 278 c-175 153 -345 301 -379 330 l-60 53 -31 -31 -31 -31 -51
43 c-28 24 -51 46 -51 49 1 9 73 95 155 185 6 6 54 62 108 124 54 61 102 112
105 112 4 0 59 -46 122 -101z m2473 -784 c172 -36 317 -164 415 -368 122 -252
103 -525 -59 -848 -85 -171 -170 -293 -332 -479 -36 -41 -64 -76 -63 -78 2 -1
53 18 113 42 263 108 488 175 661 196 225 28 469 -37 632 -169 81 -66 115
-107 161 -195 80 -153 105 -292 75 -420 -28 -119 -68 -174 -220 -304 -28 -24
-36 -37 -31 -50 53 -125 37 -324 -39 -467 -64 -122 -209 -233 -357 -272 -149
-39 -348 -14 -499 62 -112 56 -297 213 -587 499 -238 234 -223 236 -204 -24
30 -427 147 -717 383 -954 l89 -89 -31 -120 c-17 -66 -36 -130 -41 -144 -9
-23 -9 -23 -36 -6 -153 96 -314 264 -416 435 -160 265 -238 560 -256 965 l-6
142 -85 -106 c-106 -132 -286 -316 -407 -416 -213 -176 -396 -246 -612 -234
-218 12 -400 96 -495 231 -85 118 -106 252 -66 411 l22 90 -28 20 c-61 43
-149 133 -186 190 -63 96 -82 175 -75 314 7 168 52 281 152 390 126 136 298
206 555 226 157 12 427 -34 773 -132 88 -24 161 -42 164 -39 3 3 -28 45 -69
93 -173 207 -283 368 -358 525 -136 287 -138 550 -3 771 51 85 151 180 228
218 57 28 79 33 166 37 147 7 243 -20 376 -104 l53 -34 80 65 c97 78 143 103
235 126 87 22 141 23 228 4z m2253 -84 c16 -5 54 -17 85 -25 l57 -16 42 -101
c42 -99 43 -101 27 -134 l-16 -34 24 9 c22 9 26 5 45 -38 41 -90 43 -87 -120
-153 -79 -32 -146 -59 -147 -59 -8 0 -53 116 -51 128 3 12 37 29 145 72 22 9
22 9 -18 102 -22 51 -45 97 -49 102 -6 6 -82 -19 -192 -64 -101 -40 -185 -74
-187 -76 -2 -2 24 -69 58 -148 l62 -144 -35 -54 c-27 -44 -45 -59 -85 -76 -27
-12 -52 -22 -55 -22 -3 0 -29 -11 -58 -24 -29 -13 -107 -46 -173 -73 l-120
-48 -85 20 -85 21 -42 100 c-42 101 -51 138 -33 149 19 12 10 32 -12 28 -20
-3 -26 5 -50 62 l-26 66 36 15 c128 55 248 104 257 104 6 0 22 -30 37 -65 l27
-66 -85 -39 -84 -39 26 -58 c14 -32 33 -77 41 -100 8 -24 18 -45 22 -47 6 -4
397 158 410 170 2 2 -22 62 -53 134 -31 73 -56 138 -56 146 0 8 11 36 24 63
l24 47 154 63 c84 35 176 74 203 86 57 27 71 29 111 16z m-5416 -86 c85 -27
143 -46 149 -51 3 -3 -37 -122 -45 -132 -1 -2 -41 9 -88 24 -47 15 -87 26 -89
23 -3 -2 -20 -48 -39 -101 l-35 -96 41 -16 c135 -51 902 -306 911 -302 10 3
65 160 65 184 0 6 -29 20 -65 31 -110 34 -106 29 -82 111 12 39 26 68 32 66 5
-2 44 -16 85 -30 75 -26 75 -27 128 -107 l53 -81 -46 -138 -46 -138 -77 -31
c-42 -17 -84 -31 -94 -31 -9 0 -180 56 -380 125 -199 69 -405 140 -456 157
-52 17 -99 37 -106 43 -7 7 -34 44 -60 83 l-48 70 26 89 c39 127 40 129 78
137 l33 7 -28 15 c-21 11 -27 20 -22 32 4 9 13 38 21 63 l14 47 48 -15 c26 -8
81 -25 122 -38z"/>
</g>
</svg>
